<?xml version="1.0" encoding="utf-8"?>
<!--Generator: Adobe Illustrator 27.4.0, SVG Export Plug-In . SVG Version: 6.00 Build 0)-->
<svg xmlns="http://www.w3.org/2000/svg" xmlns:xlink="http://www.w3.org/1999/xlink" xml:space="preserve" style="enable-background:new 0 0 512 512;" viewBox="0 0 512 512">
  <style>
    .st0{display:none;}
	.st1{display:inline;fill:#0073AA;}
	.st2{fill:#0073AA;}
	.st3{fill:#FFFFFF;}
	.st4{fill:none;stroke:#E1E1E1;stroke-width:6;stroke-miterlimit:10;stroke-dasharray:51,25;}
	.st5{fill:none;stroke:#1E1E1E;stroke-width:6;stroke-miterlimit:10;}
	.st6{fill:none;stroke:#1E1E1E;stroke-width:6;stroke-miterlimit:10;stroke-dasharray:48.781,23.9123;}
	.st7{fill:none;stroke:#1E1E1E;stroke-width:6;stroke-miterlimit:10;stroke-dasharray:58.2585,28.5581;}
	.st8{fill:#FFFFFF;stroke:#1E1E1E;stroke-width:5;stroke-miterlimit:10;}
  </style>
  <g id="Layer_1">
    <path d="M36.8 270.5h438.1v166.9H36.8z" class="st2"/>
    <path d="M95.6 350.9c-.6 0-.9.4-.9 1.1l-3 21.3c0 .5-.2.8-.4.9-.2.1-.6.2-1.2.2h-8c-.5 0-.8-.1-.9-.3-.1-.2-.2-.5-.1-1l7.3-51.3c0-.4.1-.6.3-.8.1-.1.3-.2.7-.2h8.9c.3 0 .6.1.6.2.1.1.1.4 0 .8l-2.7 19.7-.1.4c0 .4.2.6.7.6h19.4c.6 0 .9-.5 1-1.4l2.7-19.4c0-.3.1-.6.3-.7.1-.1.4-.2.7-.2h8.9c.3 0 .6.1.6.3.1.2.1.6.1 1.2l-7.2 50.8c0 .5-.1.8-.3.9-.1.1-.5.2-1 .2h-8c-.6 0-1-.1-1.2-.3-.2-.2-.2-.6-.1-1.1l3-21.6v-.1c0-.2-.2-.4-.7-.4H95.6z" class="st3"/>
    <path d="M142.9 373.1c0 .6-.2.9-.4 1.1-.2.1-.6.2-1.3.2H135c-.5 0-.9-.1-1.2-.4-.2-.3-.3-.7-.2-1.2l5-35.6c0-.4.1-.6.3-.8.1-.1.4-.2.7-.2h7.6c.3 0 .5.1.6.4s.2.6.1 1l-5 35.5zm6.4-43.6c-.1.5-.3.9-.5 1.1-.2.2-.7.3-1.3.3h-6.9c-.8 0-1.1-.6-.9-1.7l1-6.8c.1-.9.5-1.3 1.2-1.3h7.6c.3 0 .5.1.6.4s.2.6.1 1.1l-.9 6.9z" class="st3"/>
    <path d="M152.5 384.7c-3.2-1.5-4.8-3.7-4.8-6.4 0-1.8.7-3.4 2.1-4.8 1.4-1.3 3.2-2.4 5.5-3.3.6-.2.9-.5.9-.6 0-.2-.2-.4-.5-.5-1-.5-1.8-1.1-2.3-1.7-.5-.7-.8-1.5-.8-2.6 0-1.5.7-2.9 2.1-4 1.4-1.1 3.1-2 5-2.7.6-.2.9-.5.9-.7 0-.1-.1-.3-.4-.4-1.7-.8-3-1.8-4-3.2-.9-1.3-1.4-2.9-1.4-4.8 0-2.9.8-5.4 2.5-7.4s3.8-3.5 6.5-4.5 5.6-1.5 8.7-1.5c5.5 0 9.6 1.2 12.1 3.5.1.1.3.2.5.2.4 0 .9-.3 1.6-1 1-1 2.2-1.8 3.7-2.4 1.5-.7 2.8-1 3.9-1 .6 0 1 .1 1.2.3.2.2.3.5.3 1l-.6 4c0 .6-.2 1-.4 1.2-.2.2-.5.3-1 .3-1.7 0-3 .1-4 .4-.8.2-1.3.4-1.6.7-.3.3-.4.6-.2 1.1.3 1 .5 1.9.5 2.8 0 2.8-.9 5.2-2.7 7.1-1.8 1.9-4 3.3-6.8 4.2-2.8.9-5.6 1.3-8.6 1.3-1.8 0-3.8.2-5.9.6-2.1.4-3.2 1.2-3.2 2.4 0 .5.3.9 1 1.2.7.2 1.9.4 3.6.5l9.9.6c8.3.4 12.4 3.6 12.4 9.6 0 4.6-2.2 7.8-6.6 9.8-4.4 2-9.7 3-15.8 3-5.7 0-10.1-.8-13.3-2.3zm23.5-4.1c2.4-1.1 3.7-2.7 3.7-5 0-1.2-.4-2-1.3-2.6-.8-.6-2.2-.9-4.2-1l-11.2-.6c-2 .4-3.7 1.1-5.1 2.1-1.4 1-2.2 2.3-2.2 3.9 0 3.3 3.5 5 10.5 5 4.1-.2 7.3-.7 9.8-1.8zm1.4-28.3c1.8-1.4 2.7-3.5 2.7-6.2 0-1.7-.6-3.1-1.9-4-1.3-1-3.1-1.4-5.5-1.4-2.6 0-4.9.8-6.7 2.3-1.8 1.6-2.7 3.6-2.7 6.2 0 1.6.7 2.9 2 3.9 1.3.9 3.2 1.4 5.5 1.4 2.5 0 4.8-.7 6.6-2.2z" class="st3"/>
    <path d="M198.2 374.4c-.5 0-.8-.1-1.1-.4-.2-.3-.3-.7-.3-1.2l7.2-50.9c0-.3.2-.6.3-.7.2-.1.4-.2.8-.2h7.1c.7 0 .9.4.8 1.2l-2.5 17.9v.4c0 .2 0 .3.1.3s.2 0 .4-.1c2.7-1.9 5.1-3.2 7.1-4 2-.8 4-1.2 6.1-1.2 3.3 0 5.9.8 7.7 2.5 1.8 1.7 2.7 4 2.7 6.8 0 .7-.1 1.4-.2 2.2l-3.7 26.1c0 .5-.2.8-.4 1-.2.2-.6.3-1.1.3h-6.7c-.4 0-.8-.1-1-.4-.2-.3-.3-.7-.3-1.2l3.5-24.8c.1-.7.1-1.1.1-1.4 0-2.8-1.7-4.2-5-4.2-1.7 0-3.3.4-4.9 1.2-1.5.8-3.3 2.1-5.4 4l-3.7 25.6c-.1.5-.2.8-.4.9-.2.1-.6.2-1.2.2h-6z" class="st3"/>
    <path d="M248.8 373.1c-.1.6-.2.9-.4 1.1-.2.1-.6.2-1.3.2h-6.3c-.5 0-.9-.1-1.2-.4-.3-.3-.3-.7-.3-1.2l7.4-50.9c0-.4.1-.6.3-.8.1-.1.3-.2.7-.2h7.5c.6 0 .9.4.7 1.2l-7.1 51z" class="st3"/>
    <path d="M267.3 373.1c0 .6-.2.9-.4 1.1-.2.1-.6.2-1.3.2h-6.3c-.5 0-.9-.1-1.2-.4s-.3-.7-.2-1.2l5-35.6c0-.4.1-.6.3-.8.1-.1.4-.2.7-.2h7.6c.3 0 .5.1.6.4.1.3.2.6.1 1l-4.9 35.5zm6.3-43.6c-.1.5-.3.9-.5 1.1-.2.2-.7.3-1.3.3h-6.9c-.8 0-1.1-.6-.9-1.7l1-6.8c.1-.9.5-1.3 1.2-1.3h7.6c.3 0 .5.1.6.4.1.3.2.6.1 1.1l-.9 6.9z" class="st3"/>
    <path d="M276.8 384.7c-3.2-1.5-4.8-3.7-4.8-6.4 0-1.8.7-3.4 2.1-4.8 1.4-1.3 3.2-2.4 5.5-3.3.6-.2.9-.5.9-.6 0-.2-.2-.4-.5-.5-1-.5-1.8-1.1-2.3-1.7-.5-.7-.8-1.5-.8-2.6 0-1.5.7-2.9 2.1-4 1.4-1.1 3.1-2 5-2.7.6-.2.9-.5.9-.7 0-.1-.1-.3-.4-.4-1.7-.8-3-1.8-4-3.2-.9-1.3-1.4-2.9-1.4-4.8 0-2.9.8-5.4 2.5-7.4s3.8-3.5 6.5-4.5 5.6-1.5 8.7-1.5c5.5 0 9.6 1.2 12.1 3.5.1.1.3.2.5.2.4 0 .9-.3 1.6-1 1-1 2.2-1.8 3.7-2.4 1.5-.7 2.8-1 3.9-1 .6 0 1 .1 1.2.3.2.2.3.5.3 1l-.6 4c0 .6-.2 1-.4 1.2-.2.2-.5.3-1 .3-1.7 0-3 .1-4 .4-.8.2-1.3.4-1.6.7-.3.3-.4.6-.2 1.1.3 1 .5 1.9.5 2.8 0 2.8-.9 5.2-2.7 7.1-1.8 1.9-4 3.3-6.8 4.2-2.8.9-5.6 1.3-8.6 1.3-1.8 0-3.8.2-5.9.6-2.1.4-3.2 1.2-3.2 2.4 0 .5.3.9 1 1.2.7.2 1.9.4 3.6.5l9.9.6c8.3.4 12.4 3.6 12.4 9.6 0 4.6-2.2 7.8-6.6 9.8-4.4 2-9.7 3-15.8 3-5.7 0-10.1-.8-13.3-2.3zm23.5-4.1c2.4-1.1 3.7-2.7 3.7-5 0-1.2-.4-2-1.3-2.6-.8-.6-2.2-.9-4.2-1l-11.2-.6c-2 .4-3.7 1.1-5.1 2.1-1.4 1-2.2 2.3-2.2 3.9 0 3.3 3.5 5 10.5 5 4.1-.2 7.4-.7 9.8-1.8zm1.4-28.3c1.8-1.4 2.7-3.5 2.7-6.2 0-1.7-.6-3.1-1.9-4-1.3-1-3.1-1.4-5.5-1.4-2.6 0-4.9.8-6.7 2.3-1.8 1.6-2.7 3.6-2.7 6.2 0 1.6.7 2.9 2 3.9 1.3.9 3.2 1.4 5.5 1.4 2.6 0 4.8-.7 6.6-2.2z" class="st3"/>
    <path d="M322.6 374.4c-.5 0-.8-.1-1.1-.4-.2-.3-.3-.7-.3-1.2l7.2-50.9c0-.3.2-.6.3-.7.2-.1.4-.2.8-.2h7.1c.7 0 .9.4.8 1.2l-2.5 17.9v.4c0 .2 0 .3.1.3s.2 0 .4-.1c2.7-1.9 5.1-3.2 7.1-4 2-.8 4-1.2 6.1-1.2 3.3 0 5.9.8 7.7 2.5 1.8 1.7 2.7 4 2.7 6.8 0 .7-.1 1.4-.2 2.2l-3.7 26.1c0 .5-.2.8-.4 1-.2.2-.6.3-1.1.3H347c-.4 0-.8-.1-1-.4-.2-.3-.3-.7-.3-1.2l3.5-24.8c.1-.7.1-1.1.1-1.4 0-2.8-1.7-4.2-5-4.2-1.7 0-3.3.4-4.9 1.2-1.5.8-3.3 2.1-5.4 4l-3.7 25.6c-.1.5-.2.8-.4.9-.2.1-.6.2-1.2.2h-6.1z" class="st3"/>
    <path d="M371 372.5c-1.6-1.3-2.4-3.1-2.4-5.5 0-.4 0-1.1.1-2l3-21.4v-.1c0-.4-.3-.6-.9-.6h-5c-.5 0-.8-.5-.7-1.4l.6-4.5c0-.3.1-.5.3-.5.1-.1.4-.1.8-.1h5.3c.2 0 .5-.1.6-.3.2-.2.3-.4.4-.7l2.5-11.1c.1-.6.6-.9 1.2-.9h6.4c.3 0 .6.1.6.3.1.2.1.6.1 1.2l-1.6 10.7v.1c0 .4.2.6.6.6h7.9c.9 0 1.2.3 1.1.9l-.6 4.9c0 .3-.1.6-.3.6-.1.1-.4.1-.9.1H382c-.6 0-.9.3-1.1 1l-2.7 19.3c-.1.4-.1.9-.1 1.5 0 1.2.3 2 .9 2.5.6.5 1.7.7 3.2.7h4.2c.3 0 .6.1.8.4.2.3.3.6.2.9l-.6 3.7c-.1.7-.5 1.2-1.2 1.3-1.9.2-4.6.3-7.9.3-2.8 0-5-.6-6.7-1.9z" class="st3"/>
    <path d="M397.8 372.8c-2.8-1.5-4.7-3.5-5.8-6-.1-.3-.2-.5-.2-.7 0-.3.2-.6.6-.7l4.1-2c.3-.1.6-.2.8-.2.4 0 .7.2 1.1.7 1.8 3.4 5 5.1 9.8 5.1 2.1 0 4.2-.4 6.2-1.2 2-.8 3-2.2 3-4.1 0-1.8-1.7-3.1-5.1-4l-7.1-1.9c-3.2-.8-5.5-2-7-3.5s-2.2-3.4-2.2-5.6c0-2.7.8-5.1 2.4-7.1 1.6-2 3.7-3.5 6.3-4.5 2.6-1 5.4-1.5 8.5-1.5 3.4 0 6.3.7 8.7 2 2.4 1.3 4.3 3.1 5.5 5.2.1.2.1.4.1.6 0 .3-.2.6-.5.8l-4 1.9c-.3.1-.5.1-.5.1-.3 0-.7-.3-1.2-.9-.8-1.2-1.9-2.1-3.3-2.8-1.4-.7-3.1-1-5.1-1-2.1 0-4 .4-5.7 1.3-1.7.9-2.6 2.1-2.6 3.7 0 .8.3 1.5.8 2.1.6.6 1.6 1.1 3.1 1.5l8.2 2.2c3.1.8 5.4 2.1 6.9 3.8 1.5 1.7 2.3 3.7 2.3 6.1 0 2.8-.8 5.2-2.5 7.2s-3.9 3.4-6.6 4.4c-2.7 1-5.5 1.4-8.4 1.4-4.3-.1-7.8-.8-10.6-2.4z" class="st3"/>
    <path d="M35.3 268.5h441.4v171H35.3z" class="st4"/>
    <path d="M475.2 411.7v25.5h-25.5" class="st5"/>
    <path d="M425.8 437.2H74.3" class="st6"/>
    <path d="M62.3 437.2H36.8v-25.5" class="st5"/>
    <path d="M36.8 383.1v-72.5" class="st7"/>
    <path d="M36.8 296.3v-25.5h25.5" class="st5"/>
    <path d="M86.2 270.8h351.5" class="st6"/>
    <path d="M449.7 270.8h25.5v25.5" class="st5"/>
    <path d="M475.2 324.9v72.5" class="st7"/>
    <path d="M35.3 71.9h441.4v171H35.3z" class="st4"/>
    <path d="M475.2 215.1v25.5h-25.5" class="st5"/>
    <path d="M425.8 240.6H74.3" class="st6"/>
    <path d="M62.3 240.6H36.8v-25.5" class="st5"/>
    <path d="M36.8 186.6V114" class="st7"/>
    <path d="M36.8 99.7V74.2h25.5" class="st5"/>
    <path d="M86.2 74.2h351.5" class="st6"/>
    <path d="M449.7 74.2h25.5v25.5" class="st5"/>
    <path d="M475.2 128.3v72.5" class="st7"/>
    <path d="M71.4 160.3c-.4 0-.7.1-.9.4-.2.3-.3.5-.3.8v48.6c0 .8-.2 1.4-.6 1.7-.4.4-1.1.5-2 .5h-9.8c-.8 0-1.4-.1-1.6-.5-.3-.3-.5-.8-.5-1.6V103.1c0-1.4.6-2.1 1.8-2.1h10.8c1.2 0 1.8.7 1.8 1.9V147c0 .7.1 1.2.4 1.4.2.3.7.4 1.3.4H121c1 0 1.5-.6 1.5-1.8v-44.2c0-1.2.5-1.8 1.7-1.8h10.9c.7 0 1.2.1 1.4.4.2.3.4.9.4 1.6v107.1c0 1.4-.7 2.1-2.1 2.1H125c-.9 0-1.6-.2-2-.5-.4-.3-.6-.9-.6-1.7v-48.5c0-.9-.4-1.3-1.3-1.3H71.4z"/>
    <path d="M176.4 208.7c-5.8-3.5-10.2-8.3-13.4-14.5-3.1-6.2-4.7-13.2-4.7-21.1 0-8.1 1.6-15.3 4.9-21.6 3.2-6.3 7.7-11.2 13.5-14.8 5.7-3.5 12.3-5.3 19.7-5.3 7.4 0 14 1.8 19.7 5.3 5.7 3.6 10.2 8.5 13.4 14.8 3.1 6.3 4.7 13.5 4.7 21.4 0 7.9-1.6 15-4.8 21.2-3.2 6.2-7.7 11.1-13.4 14.5-5.8 3.5-12.3 5.2-19.7 5.2-7.5 0-14.1-1.7-19.9-5.1zm38.4-12.8c4.4-5.6 6.5-13.4 6.5-23.3 0-9.8-2.2-17.6-6.7-23.3-4.5-5.7-10.5-8.6-18.2-8.6-7.8 0-14 2.9-18.5 8.6-4.5 5.8-6.8 13.5-6.8 23.3s2.2 17.5 6.8 23.2 10.7 8.5 18.6 8.5c7.9.1 14-2.7 18.3-8.4z"/>
    <path d="M315.5 133.5c.2.5.3.9.1 1.4L285.1 210c-.5 1.5-1.7 2.2-3.5 2.2h-5.4c-1.9 0-3.2-.7-3.8-2.1L242.1 135c-.1-.2-.1-.5-.1-.8 0-1 .6-1.5 1.8-1.5h9.3c1.1 0 1.9.6 2.4 1.6l23.5 59c.3 1 .6 1.5 1 1.5s.8-.5 1.4-1.6l23.4-58.8c.3-1.1 1-1.6 2.2-1.6h6.9c.8 0 1.3.3 1.6.7z"/>
    <path d="M338.9 190.9c2.3 4.1 5.5 7.4 9.5 9.8 4 2.4 8.4 3.6 13.2 3.6 10 0 17.8-4.1 23.4-12.4.4-.4.8-.6 1.1-.7.3 0 .6 0 1 .2l6.3 3.1c.8.5.9 1.2.3 2.1-3.9 6-8.5 10.4-14 13.1-5.4 2.7-11.8 4.1-19.3 4.1-7.3 0-13.9-1.7-19.7-5.1-5.8-3.4-10.3-8.2-13.6-14.3-3.3-6.2-4.9-13.2-4.9-21.1 0-8.5 1.6-15.9 4.9-22.3 3.3-6.3 7.8-11.2 13.6-14.6 5.7-3.4 12.2-5.1 19.4-5.1 7.2 0 13.5 1.6 19 4.8 5.4 3.2 9.7 7.9 12.7 14s4.5 13.4 4.5 21.8v.6c0 .9-.2 1.6-.5 2-.3.5-.9.7-1.8.7h-57.5c-.9 0-1.3.8-1.3 2.2.1 4.9 1.3 9.4 3.7 13.5zm42.3-23.9c1.1 0 1.8-.1 2.1-.4.3-.2.5-.8.5-1.7 0-4.4-.9-8.5-2.8-12.2-1.9-3.8-4.6-6.8-8.1-9-3.6-2.2-7.7-3.4-12.4-3.4-5.1 0-9.6 1.3-13.4 3.8-3.8 2.5-6.7 5.8-8.7 9.9-2 4-3 8.4-2.8 13h45.6z"/>
    <path d="M414.1 210.4v-75.6c0-1.3.5-2 1.7-2h8.7c1.1 0 1.6.6 1.6 1.6v9.8c0 .6.2 1 .5 1.1.3.1.7-.1 1.1-.6 7.6-8.9 15.3-13.4 23.2-13.4 3.5 0 5.2.7 5.2 2v9c0 1-.5 1.4-1.4 1.2-1.8-.3-4-.4-6.8-.4-2.9 0-6.1.9-9.4 2.5-3.4 1.7-6.3 3.9-8.6 6.6-2.3 2.7-3.4 5.5-3.4 8.2V210c0 1.5-.8 2.2-2.2 2.2h-8.2c-1.3.1-2-.5-2-1.8z"/>
  </g>
  <path id="Layer_2" d="M467.6 448.4c-.6-1.1-1.5-2.1-3-3.1L399 400.4c-.1-.1-.2-.2-.4-.2-.4-.2-.8-.4-1.3-.4-.5-.1-.9 0-1.4.2l-.6.3c-.5.3-.8.8-1.1 1.3-.2.4-.3.9-.3 1.4v.2l6.1 79.4c.1 1.8.6 3.1 1.2 4.2.8 1.3 1.9 2 3.2 2.3 1.2.2 2.5.1 3.7-.4 1.7-.7 3.4-2 4.9-3.7l10.9-12.3 11.5 19.8c.6 1.1 1.6 1.8 2.7 2.1 1 .3 2.2.2 3.2-.3.1 0 .2-.1.3-.1l11.9-6.8s.1 0 .1-.1c1-.7 1.7-1.7 2-2.8.3-1.1.2-2.3-.4-3.4L444 461.2l16-3.3h.1c2.2-.5 4.2-1.3 5.6-2.4 1.1-.9 1.9-1.9 2.2-3 .5-1.4.4-2.7-.3-4.1z" class="st8"/>
</svg>
